<?xml version="1.0" encoding="utf-8" standalone="no"?>
<!DOCTYPE svg PUBLIC "-//W3C//DTD SVG 1.1//EN"
  "http://www.w3.org/Graphics/SVG/1.1/DTD/svg11.dtd">
<!-- Created with matplotlib (https://matplotlib.org/) -->
<svg height="343.44pt" version="1.1" viewBox="0 0 460.8 343.44" width="460.8pt" xmlns="http://www.w3.org/2000/svg" xmlns:xlink="http://www.w3.org/1999/xlink">
 <defs>
  <style type="text/css">
*{stroke-linecap:butt;stroke-linejoin:round;}
  </style>
 </defs>
 <g id="figure_1">
  <g id="patch_1">
   <path d="M 0 343.44 
L 460.8 343.44 
L 460.8 0 
L 0 0 
z
" style="fill:#ffffff;"/>
  </g>
  <g id="axes_1">
   <g id="patch_2">
    <path d="M 57.6 305.6616 
L 414.72 305.6616 
L 414.72 41.2128 
L 57.6 41.2128 
z
" style="fill:#ffffff;"/>
   </g>
   <g id="matplotlib.axis_1">
    <g id="xtick_1">
     <g id="line2d_1">
      <path clip-path="url(#p6cfa178a3c)" d="M 130.653291 305.6616 
L 130.653291 41.2128 
" style="fill:none;stroke:#cccccc;stroke-linecap:round;stroke-width:0.8;"/>
     </g>
     <g id="text_1">
      <!-- 40 -->
      <defs>
       <path d="M 31.25 17.1875 
L 1.171875 17.1875 
L 1.171875 23.828125 
L 32.8125 69.53125 
L 38.671875 69.53125 
L 38.671875 23.828125 
L 48.046875 23.828125 
L 48.046875 17.1875 
L 38.671875 17.1875 
L 38.671875 2.34375 
L 31.25 2.34375 
z
M 31.25 23.828125 
L 31.25 54.6875 
L 9.375 23.828125 
z
" id="SimHei-52"/>
       <path d="M 3.125 29.296875 
Q 3.90625 50 6.4375 56.046875 
Q 8.984375 62.109375 13.671875 66.015625 
Q 18.359375 69.921875 25.1875 69.921875 
Q 32.03125 69.921875 37.109375 64.25 
Q 42.1875 58.59375 43.75 50 
Q 45.3125 41.40625 44.71875 30.265625 
Q 44.140625 19.140625 40.8125 12.109375 
Q 37.5 5.078125 30.859375 2.34375 
Q 24.21875 -0.390625 17.578125 2.921875 
Q 10.9375 6.25 8.203125 11.71875 
Q 5.46875 17.1875 4.296875 23.234375 
Q 3.125 29.296875 3.90625 50 
z
M 12.890625 52.734375 
Q 10.546875 31.25 12.5 22.84375 
Q 14.453125 14.453125 18.9375 10.9375 
Q 23.4375 7.421875 28.125 9.5625 
Q 32.8125 11.71875 34.953125 18.15625 
Q 37.109375 24.609375 37.109375 32.21875 
Q 37.109375 39.84375 36.515625 46.09375 
Q 35.9375 52.34375 33 57.421875 
Q 30.078125 62.5 25.1875 62.6875 
Q 20.3125 62.890625 16.59375 57.8125 
Q 12.890625 52.734375 10.546875 31.25 
z
" id="SimHei-48"/>
      </defs>
      <g style="fill:#262626;" transform="translate(125.653291 319.5366)scale(0.1 -0.1)">
       <use xlink:href="#SimHei-52"/>
       <use x="50" xlink:href="#SimHei-48"/>
      </g>
     </g>
    </g>
    <g id="xtick_2">
     <g id="line2d_2">
      <path clip-path="url(#p6cfa178a3c)" d="M 207.09358 305.6616 
L 207.09358 41.2128 
" style="fill:none;stroke:#cccccc;stroke-linecap:round;stroke-width:0.8;"/>
     </g>
     <g id="text_2">
      <!-- 60 -->
      <defs>
       <path d="M 3.515625 19.53125 
Q 4.296875 30.859375 6.046875 34.765625 
Q 7.8125 38.671875 11.328125 44.53125 
L 27.34375 69.53125 
L 36.328125 69.53125 
L 19.921875 43.75 
Q 30.46875 46.484375 36.71875 42.96875 
Q 42.96875 39.453125 45.109375 34.953125 
Q 47.265625 30.46875 47.453125 25.1875 
Q 47.65625 19.921875 45.890625 14.84375 
Q 44.140625 9.765625 39.640625 5.65625 
Q 35.15625 1.5625 27.140625 1.171875 
Q 19.140625 0.78125 13.46875 4.09375 
Q 7.8125 7.421875 5.65625 13.46875 
Q 3.515625 19.53125 4.296875 30.859375 
z
M 12.5 16.015625 
Q 19.53125 8.59375 25.390625 8.203125 
Q 31.25 7.8125 35.15625 12.109375 
Q 39.0625 16.40625 39.0625 24.609375 
Q 39.0625 32.8125 34.171875 35.9375 
Q 29.296875 39.0625 23.234375 38.28125 
Q 17.1875 37.5 14.453125 32.421875 
Q 11.71875 27.34375 12.109375 21.671875 
Q 12.5 16.015625 19.53125 8.59375 
z
" id="SimHei-54"/>
      </defs>
      <g style="fill:#262626;" transform="translate(202.09358 319.5366)scale(0.1 -0.1)">
       <use xlink:href="#SimHei-54"/>
       <use x="50" xlink:href="#SimHei-48"/>
      </g>
     </g>
    </g>
    <g id="xtick_3">
     <g id="line2d_3">
      <path clip-path="url(#p6cfa178a3c)" d="M 283.533869 305.6616 
L 283.533869 41.2128 
" style="fill:none;stroke:#cccccc;stroke-linecap:round;stroke-width:0.8;"/>
     </g>
     <g id="text_3">
      <!-- 80 -->
      <defs>
       <path d="M 2.734375 16.796875 
Q 2.734375 26.171875 5.078125 30.65625 
Q 7.421875 35.15625 12.890625 37.890625 
Q 8.203125 40.625 6.640625 43.9375 
Q 5.078125 47.265625 4.875 51.5625 
Q 4.6875 55.859375 6.046875 58.984375 
Q 7.421875 62.109375 10.15625 64.84375 
Q 12.890625 67.578125 16.203125 68.546875 
Q 19.53125 69.53125 23.4375 69.53125 
Q 27.34375 69.53125 30.46875 68.75 
Q 33.59375 67.96875 37.109375 65.421875 
Q 40.625 62.890625 42.1875 58.203125 
Q 43.75 53.515625 41.984375 47.265625 
Q 40.234375 41.015625 32.8125 37.5 
Q 39.453125 35.546875 42.1875 31.4375 
Q 44.921875 27.34375 44.921875 21.484375 
Q 44.921875 15.625 43.15625 12.109375 
Q 41.40625 8.59375 39.25 6.25 
Q 37.109375 3.90625 33.390625 2.53125 
Q 29.6875 1.171875 24.015625 1.171875 
Q 18.359375 1.171875 14.25 2.53125 
Q 10.15625 3.90625 7.421875 6.640625 
Q 4.6875 9.375 3.703125 13.078125 
Q 2.734375 16.796875 2.734375 26.171875 
z
M 10.9375 26.5625 
Q 10.546875 17.1875 12.296875 13.671875 
Q 14.0625 10.15625 18.75 9.171875 
Q 23.4375 8.203125 28.515625 9.375 
Q 33.59375 10.546875 35.546875 14.84375 
Q 37.5 19.140625 36.90625 23.4375 
Q 36.328125 27.734375 32.03125 30.65625 
Q 27.734375 33.59375 22.65625 33.203125 
Q 17.578125 32.8125 14.25 29.6875 
Q 10.9375 26.5625 10.546875 17.1875 
z
M 12.109375 56.25 
Q 12.109375 48.4375 14.84375 44.921875 
Q 17.578125 41.40625 23.4375 41.40625 
Q 29.296875 41.40625 32.21875 44.921875 
Q 35.15625 48.4375 34.953125 53.3125 
Q 34.765625 58.203125 31.4375 60.546875 
Q 28.125 62.890625 22.453125 62.5 
Q 16.796875 62.109375 14.453125 59.171875 
Q 12.109375 56.25 12.109375 48.4375 
z
" id="SimHei-56"/>
      </defs>
      <g style="fill:#262626;" transform="translate(278.533869 319.5366)scale(0.1 -0.1)">
       <use xlink:href="#SimHei-56"/>
       <use x="50" xlink:href="#SimHei-48"/>
      </g>
     </g>
    </g>
    <g id="xtick_4">
     <g id="line2d_4">
      <path clip-path="url(#p6cfa178a3c)" d="M 359.974158 305.6616 
L 359.974158 41.2128 
" style="fill:none;stroke:#cccccc;stroke-linecap:round;stroke-width:0.8;"/>
     </g>
     <g id="text_4">
      <!-- 100 -->
      <defs>
       <path d="M 21.875 56.25 
Q 16.796875 51.171875 8.984375 46.484375 
L 8.984375 53.90625 
Q 18.75 60.546875 25 69.53125 
L 29.6875 69.53125 
L 29.6875 2.34375 
L 21.875 2.34375 
z
" id="SimHei-49"/>
      </defs>
      <g style="fill:#262626;" transform="translate(352.474158 319.5366)scale(0.1 -0.1)">
       <use xlink:href="#SimHei-49"/>
       <use x="50" xlink:href="#SimHei-48"/>
       <use x="100" xlink:href="#SimHei-48"/>
      </g>
     </g>
    </g>
    <g id="text_5">
     <!-- snrg -->
     <defs>
      <path d="M 42.96875 14.0625 
Q 42.96875 7.8125 38.078125 4.484375 
Q 33.203125 1.171875 25.78125 1.171875 
Q 16.40625 1.171875 11.328125 4.875 
Q 6.25 8.59375 6.25 15.625 
L 14.0625 15.625 
Q 14.0625 10.9375 17.375 9.375 
Q 20.703125 7.8125 25.390625 7.8125 
Q 30.078125 7.8125 32.421875 9.5625 
Q 34.765625 11.328125 34.765625 14.0625 
Q 34.765625 16.015625 32.8125 17.96875 
Q 30.859375 19.921875 23.046875 21.09375 
Q 14.0625 22.265625 10.734375 25.578125 
Q 7.421875 28.90625 7.421875 34.375 
Q 7.421875 39.0625 11.90625 42.765625 
Q 16.40625 46.484375 25 46.484375 
Q 32.8125 46.484375 37.296875 42.96875 
Q 41.796875 39.453125 41.796875 33.59375 
L 33.984375 33.59375 
Q 33.984375 37.109375 31.4375 38.46875 
Q 28.90625 39.84375 25 39.84375 
Q 19.921875 39.84375 17.765625 38.078125 
Q 15.625 36.328125 15.625 33.984375 
Q 15.625 31.25 17.578125 29.6875 
Q 19.53125 28.125 25.78125 27.34375 
Q 35.9375 25.78125 39.453125 22.453125 
Q 42.96875 19.140625 42.96875 14.0625 
z
" id="SimHei-115"/>
      <path d="M 43.75 1.953125 
L 35.9375 1.953125 
L 35.9375 30.078125 
Q 35.9375 34.765625 33.59375 37.5 
Q 31.25 40.234375 27.34375 40.234375 
Q 22.265625 40.234375 17.765625 34.953125 
Q 13.28125 29.6875 13.28125 21.875 
L 13.28125 1.953125 
L 5.46875 1.953125 
L 5.46875 45.703125 
L 13.28125 45.703125 
L 13.28125 37.5 
Q 16.40625 41.796875 20.109375 44.140625 
Q 23.828125 46.484375 29.6875 46.484375 
Q 36.71875 46.484375 40.234375 42.578125 
Q 43.75 38.671875 43.75 32.8125 
z
" id="SimHei-110"/>
      <path d="M 39.0625 37.890625 
Q 31.640625 39.0625 26.5625 35.734375 
Q 21.484375 32.421875 17.96875 24.21875 
L 17.96875 1.953125 
L 10.15625 1.953125 
L 10.15625 45.703125 
L 17.96875 45.703125 
L 17.96875 34.375 
Q 21.484375 40.625 26.75 43.546875 
Q 32.03125 46.484375 39.0625 46.484375 
z
" id="SimHei-114"/>
      <path d="M 46.484375 39.0625 
Q 43.75 39.84375 41.203125 40.03125 
Q 38.671875 40.234375 35.9375 39.453125 
Q 37.109375 38.28125 37.890625 36.515625 
Q 38.671875 34.765625 38.671875 31.25 
Q 38.671875 24.609375 34.171875 20.3125 
Q 29.6875 16.015625 23.046875 16.015625 
Q 21.484375 16.015625 18.9375 16.59375 
Q 16.40625 17.1875 14.84375 17.96875 
Q 13.671875 17.1875 13.28125 16.40625 
Q 12.890625 15.625 12.890625 14.453125 
Q 12.890625 12.5 15.625 11.515625 
Q 18.359375 10.546875 25.390625 10.546875 
Q 36.71875 10.546875 40.8125 7.421875 
Q 44.921875 4.296875 44.921875 -0.390625 
Q 44.921875 -6.640625 38.859375 -9.5625 
Q 32.8125 -12.5 24.609375 -12.5 
Q 14.0625 -12.5 8.984375 -9.765625 
Q 3.90625 -7.03125 3.90625 -2.34375 
Q 3.90625 0 5.859375 2.34375 
Q 7.8125 4.6875 10.9375 6.25 
Q 8.59375 7.421875 7.21875 9.171875 
Q 5.859375 10.9375 5.859375 13.671875 
Q 5.859375 16.015625 7.609375 17.765625 
Q 9.375 19.53125 11.71875 20.703125 
Q 9.765625 22.65625 8.59375 25.390625 
Q 7.421875 28.125 7.421875 31.25 
Q 7.421875 37.890625 11.90625 42.1875 
Q 16.40625 46.484375 23.046875 46.484375 
Q 26.5625 46.484375 29.09375 45.5 
Q 31.640625 44.53125 33.59375 42.578125 
Q 36.71875 44.921875 39.84375 45.890625 
Q 42.96875 46.875 46.484375 46.484375 
z
M 30.859375 31.25 
Q 30.859375 35.15625 28.90625 37.5 
Q 26.953125 39.84375 23.046875 39.84375 
Q 19.140625 39.84375 17.1875 37.5 
Q 15.234375 35.15625 15.234375 31.25 
Q 15.234375 27.34375 17.1875 25 
Q 19.140625 22.65625 23.046875 22.65625 
Q 26.953125 22.65625 28.90625 25 
Q 30.859375 27.34375 30.859375 31.25 
z
M 37.5 -1.171875 
Q 37.5 0.390625 35.734375 1.953125 
Q 33.984375 3.515625 26.953125 3.515625 
Q 25.390625 3.515625 22.65625 3.703125 
Q 19.921875 3.90625 16.40625 4.296875 
Q 13.28125 3.125 12.109375 1.5625 
Q 10.9375 0 10.9375 -1.5625 
Q 10.9375 -3.90625 14.0625 -5.46875 
Q 17.1875 -7.03125 25 -7.03125 
Q 31.640625 -7.03125 34.5625 -5.265625 
Q 37.5 -3.515625 37.5 -1.171875 
z
" id="SimHei-103"/>
     </defs>
     <g style="fill:#262626;" transform="translate(226.16 331.6616)scale(0.1 -0.1)">
      <use xlink:href="#SimHei-115"/>
      <use x="50" xlink:href="#SimHei-110"/>
      <use x="100" xlink:href="#SimHei-114"/>
      <use x="150" xlink:href="#SimHei-103"/>
     </g>
    </g>
   </g>
   <g id="matplotlib.axis_2">
    <g id="ytick_1">
     <g id="line2d_5">
      <path clip-path="url(#p6cfa178a3c)" d="M 57.6 283.643662 
L 414.72 283.643662 
" style="fill:none;stroke:#cccccc;stroke-linecap:round;stroke-width:0.8;"/>
     </g>
     <g id="text_6">
      <!-- 10 -->
      <g style="fill:#262626;" transform="translate(40.6 287.081162)scale(0.1 -0.1)">
       <use xlink:href="#SimHei-49"/>
       <use x="50" xlink:href="#SimHei-48"/>
      </g>
     </g>
    </g>
    <g id="ytick_2">
     <g id="line2d_6">
      <path clip-path="url(#p6cfa178a3c)" d="M 57.6 248.674136 
L 414.72 248.674136 
" style="fill:none;stroke:#cccccc;stroke-linecap:round;stroke-width:0.8;"/>
     </g>
     <g id="text_7">
      <!-- 20 -->
      <defs>
       <path d="M 4.6875 3.90625 
Q 5.078125 9.765625 10.15625 14.453125 
Q 15.234375 19.140625 23.046875 29.09375 
Q 30.859375 39.0625 33.203125 44.53125 
Q 35.546875 50 34.953125 53.90625 
Q 34.375 57.8125 31.25 60.34375 
Q 28.125 62.890625 24.015625 62.5 
Q 19.921875 62.109375 16.203125 59.375 
Q 12.5 56.640625 10.546875 51.171875 
L 3.125 52.34375 
Q 6.25 61.328125 11.125 65.421875 
Q 16.015625 69.53125 22.65625 69.921875 
Q 26.5625 70.3125 29.6875 69.71875 
Q 32.8125 69.140625 36.125 66.984375 
Q 39.453125 64.84375 41.59375 60.546875 
Q 43.75 56.25 43.15625 50.1875 
Q 42.578125 44.140625 37.109375 35.734375 
Q 31.640625 27.34375 16.015625 9.375 
L 44.140625 9.375 
L 44.140625 2.34375 
L 4.6875 2.34375 
z
" id="SimHei-50"/>
      </defs>
      <g style="fill:#262626;" transform="translate(40.6 252.111636)scale(0.1 -0.1)">
       <use xlink:href="#SimHei-50"/>
       <use x="50" xlink:href="#SimHei-48"/>
      </g>
     </g>
    </g>
    <g id="ytick_3">
     <g id="line2d_7">
      <path clip-path="url(#p6cfa178a3c)" d="M 57.6 213.70461 
L 414.72 213.70461 
" style="fill:none;stroke:#cccccc;stroke-linecap:round;stroke-width:0.8;"/>
     </g>
     <g id="text_8">
      <!-- 30 -->
      <defs>
       <path d="M 3.90625 19.140625 
L 10.9375 20.3125 
Q 12.5 15.234375 16.015625 11.90625 
Q 19.53125 8.59375 24.796875 8.78125 
Q 30.078125 8.984375 33.203125 13.078125 
Q 36.328125 17.1875 35.9375 22.453125 
Q 35.546875 27.734375 31.828125 30.65625 
Q 28.125 33.59375 19.921875 34.765625 
L 19.921875 39.84375 
Q 28.125 40.625 31.828125 44.140625 
Q 35.546875 47.65625 35.15625 53.3125 
Q 34.765625 58.984375 30.078125 61.515625 
Q 25.390625 64.0625 20.109375 62.109375 
Q 14.84375 60.15625 11.71875 51.171875 
L 4.6875 52.34375 
Q 7.03125 59.375 11.125 64.0625 
Q 15.234375 68.75 22.265625 69.53125 
Q 29.296875 70.3125 34.5625 67.765625 
Q 39.84375 65.234375 41.984375 59.953125 
Q 44.140625 54.6875 42.578125 48.4375 
Q 41.015625 42.1875 33.59375 37.5 
Q 39.0625 35.15625 41.984375 30.46875 
Q 44.921875 25.78125 43.9375 18.15625 
Q 42.96875 10.546875 37.109375 5.859375 
Q 31.25 1.171875 23.828125 1.359375 
Q 16.40625 1.5625 10.9375 6.046875 
Q 5.46875 10.546875 3.90625 19.140625 
z
" id="SimHei-51"/>
      </defs>
      <g style="fill:#262626;" transform="translate(40.6 217.14211)scale(0.1 -0.1)">
       <use xlink:href="#SimHei-51"/>
       <use x="50" xlink:href="#SimHei-48"/>
      </g>
     </g>
    </g>
    <g id="ytick_4">
     <g id="line2d_8">
      <path clip-path="url(#p6cfa178a3c)" d="M 57.6 178.735083 
L 414.72 178.735083 
" style="fill:none;stroke:#cccccc;stroke-linecap:round;stroke-width:0.8;"/>
     </g>
     <g id="text_9">
      <!-- 40 -->
      <g style="fill:#262626;" transform="translate(40.6 182.172583)scale(0.1 -0.1)">
       <use xlink:href="#SimHei-52"/>
       <use x="50" xlink:href="#SimHei-48"/>
      </g>
     </g>
    </g>
    <g id="ytick_5">
     <g id="line2d_9">
      <path clip-path="url(#p6cfa178a3c)" d="M 57.6 143.765557 
L 414.72 143.765557 
" style="fill:none;stroke:#cccccc;stroke-linecap:round;stroke-width:0.8;"/>
     </g>
     <g id="text_10">
      <!-- 50 -->
      <defs>
       <path d="M 8.59375 20.703125 
Q 11.328125 10.15625 17.96875 8.984375 
Q 24.609375 7.8125 28.703125 10.34375 
Q 32.8125 12.890625 34.5625 16.984375 
Q 36.328125 21.09375 36.125 26.171875 
Q 35.9375 31.25 33.390625 34.765625 
Q 30.859375 38.28125 26.953125 39.453125 
Q 23.046875 40.625 18.15625 39.453125 
Q 13.28125 38.28125 10.15625 33.984375 
L 3.515625 34.765625 
Q 4.296875 37.109375 10.9375 68.359375 
L 41.796875 68.359375 
L 41.796875 61.328125 
L 16.796875 61.328125 
Q 14.84375 50.78125 12.890625 44.53125 
Q 18.75 47.265625 23.828125 47.0625 
Q 28.90625 46.875 33.59375 44.71875 
Q 38.28125 42.578125 40.421875 38.859375 
Q 42.578125 35.15625 43.546875 31.4375 
Q 44.53125 27.734375 44.328125 23.4375 
Q 44.140625 19.140625 42.578125 14.640625 
Q 41.015625 10.15625 37.890625 7.21875 
Q 34.765625 4.296875 30.265625 2.53125 
Q 25.78125 0.78125 19.921875 1.171875 
Q 14.0625 1.5625 8.78125 5.46875 
Q 3.515625 9.375 1.5625 18.75 
z
" id="SimHei-53"/>
      </defs>
      <g style="fill:#262626;" transform="translate(40.6 147.203057)scale(0.1 -0.1)">
       <use xlink:href="#SimHei-53"/>
       <use x="50" xlink:href="#SimHei-48"/>
      </g>
     </g>
    </g>
    <g id="ytick_6">
     <g id="line2d_10">
      <path clip-path="url(#p6cfa178a3c)" d="M 57.6 108.796031 
L 414.72 108.796031 
" style="fill:none;stroke:#cccccc;stroke-linecap:round;stroke-width:0.8;"/>
     </g>
     <g id="text_11">
      <!-- 60 -->
      <g style="fill:#262626;" transform="translate(40.6 112.233531)scale(0.1 -0.1)">
       <use xlink:href="#SimHei-54"/>
       <use x="50" xlink:href="#SimHei-48"/>
      </g>
     </g>
    </g>
    <g id="ytick_7">
     <g id="line2d_11">
      <path clip-path="url(#p6cfa178a3c)" d="M 57.6 73.826504 
L 414.72 73.826504 
" style="fill:none;stroke:#cccccc;stroke-linecap:round;stroke-width:0.8;"/>
     </g>
     <g id="text_12">
      <!-- 70 -->
      <defs>
       <path d="M 13.28125 2.34375 
Q 20.3125 32.03125 37.890625 61.328125 
L 4.296875 61.328125 
L 4.296875 68.359375 
L 46.09375 68.359375 
L 46.09375 61.71875 
Q 27.734375 32.03125 21.875 2.34375 
L 13.28125 2.34375 
z
" id="SimHei-55"/>
      </defs>
      <g style="fill:#262626;" transform="translate(40.6 77.264004)scale(0.1 -0.1)">
       <use xlink:href="#SimHei-55"/>
       <use x="50" xlink:href="#SimHei-48"/>
      </g>
     </g>
    </g>
    <g id="text_13">
     <!-- snri -->
     <defs>
      <path d="M 28.125 58.203125 
L 20.3125 58.203125 
L 20.3125 68.359375 
L 28.125 68.359375 
z
M 28.125 1.953125 
L 20.3125 1.953125 
L 20.3125 45.703125 
L 28.125 45.703125 
z
" id="SimHei-105"/>
     </defs>
     <g style="fill:#262626;" transform="translate(35.35 183.4372)rotate(-90)scale(0.1 -0.1)">
      <use xlink:href="#SimHei-115"/>
      <use x="50" xlink:href="#SimHei-110"/>
      <use x="100" xlink:href="#SimHei-114"/>
      <use x="150" xlink:href="#SimHei-105"/>
     </g>
    </g>
   </g>
   <g id="PathCollection_1">
    <defs>
     <path d="M 0 3 
C 0.795609 3 1.55874 2.683901 2.12132 2.12132 
C 2.683901 1.55874 3 0.795609 3 0 
C 3 -0.795609 2.683901 -1.55874 2.12132 -2.12132 
C 1.55874 -2.683901 0.795609 -3 0 -3 
C -0.795609 -3 -1.55874 -2.683901 -2.12132 -2.12132 
C -2.683901 -1.55874 -3 -0.795609 -3 0 
C -3 0.795609 -2.683901 1.55874 -2.12132 2.12132 
C -1.55874 2.683901 -0.795609 3 0 3 
z
" id="m1391ca9cd3" style="stroke:#ffffff;stroke-width:0.75;"/>
    </defs>
    <g clip-path="url(#p6cfa178a3c)">
     <use style="fill:#1f77b4;stroke:#ffffff;stroke-width:0.75;" x="119.989871" xlink:href="#m1391ca9cd3" y="231.748885"/>
     <use style="fill:#1f77b4;stroke:#ffffff;stroke-width:0.75;" x="294.541271" xlink:href="#m1391ca9cd3" y="147.856991"/>
     <use style="fill:#1f77b4;stroke:#ffffff;stroke-width:0.75;" x="171.548846" xlink:href="#m1391ca9cd3" y="185.728989"/>
     <use style="fill:#1f77b4;stroke:#ffffff;stroke-width:0.75;" x="190.964679" xlink:href="#m1391ca9cd3" y="269.935608"/>
     <use style="fill:#1f77b4;stroke:#ffffff;stroke-width:0.75;" x="398.461844" xlink:href="#m1391ca9cd3" y="59.593907"/>
     <use style="fill:#1f77b4;stroke:#ffffff;stroke-width:0.75;" x="170.09648" xlink:href="#m1391ca9cd3" y="247.834867"/>
     <use style="fill:#1f77b4;stroke:#ffffff;stroke-width:0.75;" x="145.062285" xlink:href="#m1391ca9cd3" y="262.347221"/>
     <use style="fill:#1f77b4;stroke:#ffffff;stroke-width:0.75;" x="73.858156" xlink:href="#m1391ca9cd3" y="257.031853"/>
     <use style="fill:#1f77b4;stroke:#ffffff;stroke-width:0.75;" x="144.565423" xlink:href="#m1391ca9cd3" y="177.406241"/>
     <use style="fill:#1f77b4;stroke:#ffffff;stroke-width:0.75;" x="314.912608" xlink:href="#m1391ca9cd3" y="125.721281"/>
     <use style="fill:#1f77b4;stroke:#ffffff;stroke-width:0.75;" x="87.808509" xlink:href="#m1391ca9cd3" y="221.607723"/>
     <use style="fill:#1f77b4;stroke:#ffffff;stroke-width:0.75;" x="339.33528" xlink:href="#m1391ca9cd3" y="222.272144"/>
     <use style="fill:#1f77b4;stroke:#ffffff;stroke-width:0.75;" x="127.74856" xlink:href="#m1391ca9cd3" y="256.857005"/>
     <use style="fill:#1f77b4;stroke:#ffffff;stroke-width:0.75;" x="220.547071" xlink:href="#m1391ca9cd3" y="141.562477"/>
     <use style="fill:#1f77b4;stroke:#ffffff;stroke-width:0.75;" x="175.905942" xlink:href="#m1391ca9cd3" y="133.379608"/>
     <use style="fill:#1f77b4;stroke:#ffffff;stroke-width:0.75;" x="367.618187" xlink:href="#m1391ca9cd3" y="53.264423"/>
     <use style="fill:#1f77b4;stroke:#ffffff;stroke-width:0.75;" x="133.366921" xlink:href="#m1391ca9cd3" y="213.459823"/>
     <use style="fill:#1f77b4;stroke:#ffffff;stroke-width:0.75;" x="216.801497" xlink:href="#m1391ca9cd3" y="137.051408"/>
     <use style="fill:#1f77b4;stroke:#ffffff;stroke-width:0.75;" x="304.096307" xlink:href="#m1391ca9cd3" y="122.643963"/>
     <use style="fill:#1f77b4;stroke:#ffffff;stroke-width:0.75;" x="105.007574" xlink:href="#m1391ca9cd3" y="259.44475"/>
     <use style="fill:#1f77b4;stroke:#ffffff;stroke-width:0.75;" x="146.28533" xlink:href="#m1391ca9cd3" y="248.639166"/>
     <use style="fill:#1f77b4;stroke:#ffffff;stroke-width:0.75;" x="205.832315" xlink:href="#m1391ca9cd3" y="160.026387"/>
     <use style="fill:#1f77b4;stroke:#ffffff;stroke-width:0.75;" x="272.755788" xlink:href="#m1391ca9cd3" y="293.609977"/>
     <use style="fill:#1f77b4;stroke:#ffffff;stroke-width:0.75;" x="185.078777" xlink:href="#m1391ca9cd3" y="123.273414"/>
     <use style="fill:#1f77b4;stroke:#ffffff;stroke-width:0.75;" x="228.649742" xlink:href="#m1391ca9cd3" y="204.892289"/>
     <use style="fill:#1f77b4;stroke:#ffffff;stroke-width:0.75;" x="192.608145" xlink:href="#m1391ca9cd3" y="87.534559"/>
     <use style="fill:#1f77b4;stroke:#ffffff;stroke-width:0.75;" x="333.640479" xlink:href="#m1391ca9cd3" y="55.992046"/>
     <use style="fill:#1f77b4;stroke:#ffffff;stroke-width:0.75;" x="118.957927" xlink:href="#m1391ca9cd3" y="202.374483"/>
     <use style="fill:#1f77b4;stroke:#ffffff;stroke-width:0.75;" x="235.147166" xlink:href="#m1391ca9cd3" y="134.148937"/>
    </g>
   </g>
   <g id="patch_3">
    <path d="M 57.6 305.6616 
L 57.6 41.2128 
" style="fill:none;stroke:#cccccc;stroke-linecap:square;stroke-linejoin:miter;stroke-width:0.8;"/>
   </g>
   <g id="patch_4">
    <path d="M 414.72 305.6616 
L 414.72 41.2128 
" style="fill:none;stroke:#cccccc;stroke-linecap:square;stroke-linejoin:miter;stroke-width:0.8;"/>
   </g>
   <g id="patch_5">
    <path d="M 57.6 305.6616 
L 414.72 305.6616 
" style="fill:none;stroke:#cccccc;stroke-linecap:square;stroke-linejoin:miter;stroke-width:0.8;"/>
   </g>
   <g id="patch_6">
    <path d="M 57.6 41.2128 
L 414.72 41.2128 
" style="fill:none;stroke:#cccccc;stroke-linecap:square;stroke-linejoin:miter;stroke-width:0.8;"/>
   </g>
   <g id="text_14">
    <!-- O型星信噪比分布情况 -->
    <defs>
     <path d="M 46.09375 35.546875 
Q 46.09375 17.1875 40.421875 9.171875 
Q 34.765625 1.171875 24.609375 1.171875 
Q 14.453125 1.171875 8.59375 9.171875 
Q 2.734375 17.1875 2.734375 35.546875 
Q 2.734375 53.90625 8.59375 61.71875 
Q 14.453125 69.53125 24.609375 69.53125 
Q 34.765625 69.53125 40.421875 61.71875 
Q 46.09375 53.90625 46.09375 35.546875 
z
M 36.71875 35.546875 
Q 36.71875 51.953125 33.203125 57.03125 
Q 29.6875 62.109375 24.609375 62.109375 
Q 19.53125 62.109375 15.8125 57.03125 
Q 12.109375 51.953125 12.109375 35.546875 
Q 12.109375 19.140625 15.8125 13.859375 
Q 19.53125 8.59375 24.609375 8.59375 
Q 29.6875 8.59375 33.203125 13.859375 
Q 36.71875 19.140625 36.71875 35.546875 
z
" id="SimHei-79"/>
     <path d="M 41.015625 27.734375 
Q 41.40625 36.328125 41.40625 42.1875 
L 41.40625 46.875 
L 28.515625 46.875 
Q 26.953125 37.109375 22.265625 31.25 
Q 17.578125 25.390625 12.109375 22.265625 
Q 10.15625 25.78125 5.859375 29.6875 
Q 13.28125 32.421875 16.59375 36.90625 
Q 19.921875 41.40625 21.09375 46.875 
Q 14.0625 46.875 5.859375 46.484375 
L 5.859375 53.90625 
Q 14.453125 53.515625 21.875 53.515625 
Q 22.265625 61.71875 22.265625 69.921875 
Q 16.796875 69.921875 10.9375 69.53125 
L 10.9375 76.5625 
Q 16.40625 76.171875 23.828125 76.171875 
L 46.875 76.171875 
Q 51.171875 76.171875 57.03125 76.5625 
L 57.03125 69.53125 
Q 51.953125 69.921875 48.828125 69.921875 
L 48.828125 53.515625 
Q 53.90625 53.515625 59.765625 53.90625 
L 59.765625 46.484375 
Q 53.90625 46.875 48.828125 46.875 
L 48.828125 41.796875 
Q 48.828125 34.765625 49.21875 27.734375 
z
M 46.875 18.359375 
Q 46.875 21.484375 46.484375 26.953125 
L 54.6875 26.953125 
Q 54.296875 21.484375 54.296875 18.359375 
L 71.09375 18.359375 
Q 78.90625 18.359375 85.15625 18.75 
L 85.15625 11.328125 
Q 77.734375 11.71875 71.09375 11.71875 
L 54.296875 11.71875 
L 54.296875 -0.78125 
L 82.421875 -0.78125 
Q 89.0625 -0.78125 95.3125 -0.390625 
L 95.3125 -7.8125 
Q 89.453125 -7.421875 82.8125 -7.421875 
L 19.53125 -7.421875 
Q 12.109375 -7.421875 6.25 -7.8125 
L 6.25 -0.390625 
Q 12.109375 -0.78125 19.53125 -0.78125 
L 46.875 -0.78125 
L 46.875 11.71875 
L 31.640625 11.71875 
Q 23.4375 11.71875 15.234375 11.328125 
L 16.40625 18.75 
Q 23.4375 18.359375 31.640625 18.359375 
z
M 90.234375 81.25 
Q 89.84375 74.609375 89.84375 67.578125 
L 89.84375 37.5 
Q 90.234375 30.46875 87.6875 27.734375 
Q 85.15625 25 76.5625 23.828125 
Q 75.390625 27.734375 73.046875 32.8125 
Q 80.859375 32.421875 81.828125 33.59375 
Q 82.8125 34.765625 82.8125 39.453125 
L 82.8125 67.578125 
Q 82.8125 74.609375 82.421875 81.25 
L 90.234375 81.25 
z
M 71.875 74.21875 
Q 71.484375 69.53125 71.484375 62.109375 
L 71.484375 50 
Q 71.484375 44.140625 71.875 37.890625 
L 64.0625 37.890625 
Q 64.453125 44.140625 64.453125 50 
L 64.453125 62.109375 
Q 64.453125 69.53125 64.0625 74.21875 
L 71.875 74.21875 
z
M 41.40625 53.515625 
L 41.40625 69.921875 
L 29.296875 69.921875 
Q 28.90625 58.59375 28.90625 53.515625 
z
" id="SimHei-22411"/>
     <path d="M 15.625 43.75 
Q 16.015625 50.390625 16.015625 60.15625 
Q 16.015625 69.921875 15.625 77.34375 
L 83.984375 77.34375 
Q 83.59375 69.921875 83.59375 60.15625 
Q 83.59375 50.390625 83.984375 43.75 
L 15.625 43.75 
z
M 55.078125 39.453125 
Q 54.6875 34.765625 54.6875 30.078125 
Q 78.90625 30.078125 86.71875 30.46875 
L 86.71875 23.046875 
Q 78.90625 23.4375 54.6875 23.4375 
L 54.6875 14.0625 
Q 76.953125 14.0625 83.59375 14.453125 
L 83.59375 7.421875 
Q 76.953125 7.8125 54.6875 7.8125 
L 54.6875 -2.734375 
L 79.296875 -2.734375 
Q 85.9375 -2.734375 94.140625 -1.953125 
L 94.140625 -9.765625 
Q 85.9375 -9.375 79.296875 -9.375 
L 21.09375 -9.375 
Q 13.28125 -9.375 5.859375 -10.15625 
L 5.859375 -1.953125 
Q 13.28125 -2.34375 21.09375 -2.734375 
L 46.484375 -2.734375 
L 46.484375 7.8125 
Q 26.5625 7.8125 20.703125 7.421875 
L 20.703125 14.453125 
Q 26.5625 14.0625 46.484375 14.0625 
L 46.484375 23.4375 
L 21.09375 23.4375 
Q 18.75 21.09375 16.59375 17.96875 
Q 14.453125 14.84375 10.15625 10.15625 
Q 7.8125 12.109375 3.515625 15.625 
Q 8.59375 20.3125 13.28125 26.5625 
Q 17.96875 32.8125 21.09375 39.453125 
Q 25 37.109375 30.46875 35.15625 
Q 26.953125 32.421875 25 30.078125 
L 46.484375 30.078125 
Q 46.484375 34.765625 46.09375 39.453125 
L 55.078125 39.453125 
z
M 75.390625 63.671875 
L 75.390625 71.09375 
L 24.21875 71.09375 
L 24.21875 63.671875 
z
M 75.390625 50 
L 75.390625 57.421875 
L 24.21875 57.421875 
L 24.21875 50 
z
" id="SimHei-26143"/>
     <path d="M 88.28125 24.609375 
Q 87.890625 19.921875 87.890625 8.984375 
Q 87.890625 -1.5625 88.28125 -7.03125 
L 80.859375 -7.03125 
L 80.859375 -0.390625 
L 47.265625 -0.390625 
L 47.265625 -8.59375 
L 39.453125 -8.59375 
Q 39.84375 -2.734375 39.84375 7.8125 
Q 39.84375 18.75 39.453125 24.609375 
L 88.28125 24.609375 
z
M 33.203125 77.734375 
Q 30.859375 75.390625 25.78125 62.109375 
L 25.78125 8.59375 
Q 25.78125 -3.125 26.171875 -9.765625 
L 17.578125 -9.765625 
Q 18.75 -2.734375 18.75 8.984375 
L 18.75 48.4375 
Q 14.0625 39.0625 9.765625 32.8125 
Q 7.421875 36.71875 3.90625 39.0625 
Q 8.203125 43.75 14.453125 55.65625 
Q 20.703125 67.578125 23.828125 80.859375 
Q 28.125 79.296875 33.203125 77.734375 
z
M 80.859375 5.859375 
L 80.859375 19.140625 
L 47.265625 19.140625 
L 47.265625 5.859375 
z
M 94.921875 60.9375 
Q 87.109375 61.328125 64.0625 61.328125 
Q 41.015625 61.328125 32.8125 60.9375 
L 32.8125 67.578125 
L 94.921875 67.578125 
z
M 89.0625 46.875 
Q 82.421875 47.265625 64.84375 47.265625 
Q 47.265625 47.265625 38.671875 46.875 
L 38.671875 53.515625 
Q 46.09375 53.125 64.0625 53.125 
Q 82.421875 53.125 89.0625 53.515625 
z
M 89.0625 33.203125 
Q 83.59375 33.59375 65.234375 33.59375 
Q 47.265625 33.59375 38.671875 33.203125 
L 38.671875 39.84375 
Q 46.875 39.453125 65.234375 39.453125 
Q 83.984375 39.453125 89.0625 39.84375 
z
M 62.890625 81.25 
Q 64.0625 78.90625 65.234375 76.171875 
Q 66.40625 73.4375 67.578125 70.3125 
Q 64.0625 69.140625 60.546875 68.359375 
Q 57.8125 76.5625 55.859375 78.515625 
Q 59.765625 80.078125 62.890625 81.25 
z
" id="SimHei-20449"/>
     <path d="M 28.125 75 
Q 27.734375 66.40625 27.734375 57.421875 
L 27.734375 30.46875 
Q 27.734375 23.046875 28.125 13.671875 
L 21.09375 13.671875 
L 21.09375 22.265625 
L 12.890625 22.265625 
L 12.890625 5.46875 
L 5.859375 5.46875 
Q 6.25 14.0625 6.25 22.65625 
L 6.25 57.421875 
Q 6.25 66.40625 5.859375 75 
L 28.125 75 
z
M 90.625 -7.421875 
Q 79.6875 -1.953125 74.21875 3.515625 
Q 68.75 8.984375 65.234375 15.625 
L 65.234375 3.515625 
Q 65.234375 -3.90625 65.625 -10.15625 
L 58.203125 -10.15625 
Q 58.59375 -3.90625 58.59375 3.515625 
L 58.59375 16.40625 
Q 52.734375 6.640625 46.09375 1.171875 
Q 39.453125 -4.296875 33.59375 -8.203125 
Q 32.421875 -5.078125 26.5625 -1.5625 
Q 32.8125 0 40.03125 4.6875 
Q 47.265625 9.375 50.78125 16.40625 
L 46.09375 16.40625 
Q 39.0625 16.40625 32.8125 16.015625 
L 32.8125 22.265625 
Q 39.0625 21.875 46.09375 21.875 
L 58.59375 21.875 
Q 58.59375 26.171875 58.203125 30.46875 
L 65.625 30.46875 
Q 65.234375 24.609375 65.234375 21.875 
L 81.640625 21.875 
Q 87.109375 21.875 94.140625 22.265625 
L 94.140625 16.015625 
Q 87.109375 16.40625 82.03125 16.40625 
L 71.484375 16.40625 
Q 74.609375 10.9375 80.078125 7.03125 
Q 85.546875 3.125 96.484375 0.390625 
Q 92.1875 -3.125 90.625 -7.421875 
z
M 81.640625 78.90625 
Q 80.859375 73.828125 80.859375 68.359375 
Q 80.859375 63.28125 81.640625 57.8125 
L 42.578125 57.8125 
Q 42.96875 63.28125 42.96875 68.359375 
Q 42.96875 73.828125 42.578125 78.90625 
L 81.640625 78.90625 
z
M 91.015625 52.34375 
Q 90.625 47.265625 90.625 41.796875 
Q 90.625 36.71875 91.015625 32.421875 
L 65.234375 32.421875 
Q 65.625 37.109375 65.625 42.1875 
Q 65.625 47.65625 65.234375 52.34375 
L 91.015625 52.34375 
z
M 57.421875 52.34375 
Q 57.03125 47.65625 57.03125 42.1875 
Q 57.03125 37.109375 57.421875 32.421875 
L 32.421875 32.421875 
Q 32.8125 37.109375 32.8125 42.1875 
Q 32.8125 47.65625 32.421875 52.34375 
L 57.421875 52.34375 
z
M 21.09375 27.734375 
L 21.09375 68.359375 
L 12.890625 68.359375 
L 12.890625 27.734375 
z
M 73.828125 64.0625 
L 73.828125 73.046875 
L 49.609375 73.046875 
L 49.609375 64.0625 
z
M 83.984375 37.890625 
L 83.984375 46.875 
L 72.65625 46.875 
L 72.65625 37.890625 
z
M 50 38.28125 
L 50 46.484375 
L 39.453125 46.484375 
L 39.453125 38.28125 
z
" id="SimHei-22122"/>
     <path d="M 58.984375 79.6875 
Q 58.59375 71.484375 58.59375 64.0625 
L 58.59375 47.65625 
Q 76.953125 56.25 85.546875 65.234375 
Q 88.671875 60.9375 92.1875 57.421875 
Q 87.5 54.6875 78.703125 49.796875 
Q 69.921875 44.921875 58.59375 39.84375 
L 58.59375 7.03125 
Q 58.59375 1.5625 63.28125 1.5625 
L 78.125 1.5625 
Q 80.859375 1.5625 82.21875 3.90625 
Q 83.59375 6.25 85.15625 14.0625 
Q 88.28125 12.109375 94.140625 10.546875 
Q 91.40625 0 88.28125 -2.734375 
Q 85.15625 -5.46875 81.640625 -5.46875 
L 60.9375 -5.46875 
Q 50.78125 -5.46875 50.78125 4.296875 
L 50.78125 62.5 
Q 50.78125 71.09375 50.390625 79.6875 
L 58.984375 79.6875 
z
M 19.921875 77.734375 
Q 19.53125 71.484375 19.53125 62.5 
L 19.53125 49.21875 
L 28.90625 49.21875 
Q 36.328125 49.21875 44.921875 49.609375 
L 44.921875 41.40625 
Q 36.328125 41.796875 28.90625 41.796875 
L 19.53125 41.796875 
L 19.53125 7.421875 
Q 25.78125 10.15625 30.65625 12.6875 
Q 35.546875 15.234375 44.53125 19.921875 
Q 45.3125 14.84375 46.09375 11.71875 
Q 37.109375 7.421875 27.53125 2.734375 
Q 17.96875 -1.953125 14.453125 -5.078125 
Q 11.71875 -1.5625 8.984375 3.125 
Q 10.9375 4.6875 11.71875 9.375 
L 11.71875 61.71875 
Q 11.71875 71.09375 11.328125 77.734375 
L 19.921875 77.734375 
z
" id="SimHei-27604"/>
     <path d="M 15.625 -10.15625 
Q 12.890625 -5.859375 8.984375 -3.515625 
Q 15.234375 -1.171875 20.3125 2.140625 
Q 25.390625 5.46875 29.296875 10.34375 
Q 33.203125 15.234375 35.15625 21.09375 
Q 37.109375 26.953125 37.890625 35.546875 
Q 28.90625 35.546875 23.4375 35.15625 
L 23.4375 43.359375 
Q 29.6875 42.96875 39.453125 42.96875 
L 78.515625 42.96875 
Q 77.734375 37.109375 77.34375 32.8125 
L 74.21875 3.90625 
Q 73.4375 -3.125 67.96875 -5.46875 
Q 62.5 -7.8125 55.859375 -8.203125 
Q 55.46875 -4.296875 51.953125 0.78125 
Q 60.15625 0.390625 63.078125 1.359375 
Q 66.015625 2.34375 66.796875 8.203125 
L 69.53125 35.546875 
L 46.09375 35.546875 
Q 44.921875 25.390625 42.765625 18.546875 
Q 40.625 11.71875 36.71875 6.640625 
Q 32.8125 1.5625 27.34375 -2.734375 
Q 21.875 -7.03125 15.625 -10.15625 
z
M 61.71875 80.859375 
Q 64.453125 72.65625 72.84375 62.109375 
Q 81.25 51.5625 96.484375 43.75 
Q 93.359375 41.015625 90.234375 35.546875 
Q 83.203125 40.625 77.921875 45.109375 
Q 72.65625 49.609375 69.140625 53.515625 
Q 65.625 57.421875 61.328125 64.640625 
Q 57.03125 71.875 54.296875 78.125 
Q 58.59375 79.296875 61.71875 80.859375 
z
M 42.1875 75.390625 
Q 38.671875 69.140625 36.328125 64.453125 
Q 33.984375 59.765625 31.640625 56.046875 
Q 29.296875 52.34375 24.609375 46.09375 
Q 19.921875 39.84375 13.28125 33.203125 
Q 9.765625 36.71875 6.25 38.671875 
Q 14.0625 45.703125 18.546875 51.5625 
Q 23.046875 57.421875 27.140625 64.25 
Q 31.25 71.09375 34.375 79.296875 
Q 37.5 76.953125 42.1875 75.390625 
z
" id="SimHei-20998"/>
     <path d="M 37.109375 66.015625 
Q 41.40625 74.609375 43.359375 82.8125 
Q 48.828125 80.859375 53.125 79.296875 
Q 51.171875 77.734375 46.09375 66.015625 
L 75 66.015625 
Q 86.71875 66.015625 94.140625 66.40625 
L 94.140625 59.375 
L 42.578125 59.375 
Q 36.328125 48.4375 30.859375 41.796875 
L 51.171875 41.796875 
Q 51.171875 50.390625 50.78125 55.859375 
L 58.984375 55.859375 
Q 58.59375 50.390625 58.59375 41.796875 
L 85.9375 41.796875 
Q 85.546875 34.765625 85.546875 27.734375 
L 85.546875 11.71875 
Q 85.546875 4.296875 81.4375 2.34375 
Q 77.34375 0.390625 69.53125 -0.390625 
Q 68.75 5.078125 66.015625 8.59375 
Q 75 8.59375 76.75 9.765625 
Q 78.515625 10.9375 78.125 16.015625 
L 78.125 35.15625 
L 58.59375 35.15625 
L 58.59375 8.59375 
Q 58.59375 0.390625 58.984375 -9.375 
L 50.78125 -9.375 
Q 51.171875 0.390625 51.171875 8.59375 
L 51.171875 35.15625 
L 32.8125 35.15625 
L 32.8125 0 
L 25 0 
Q 25.390625 8.203125 25.390625 16.015625 
L 25.390625 34.765625 
Q 20.3125 28.90625 10.15625 19.921875 
Q 7.421875 23.046875 3.125 25.78125 
Q 11.71875 31.640625 19.71875 40.03125 
Q 27.734375 48.4375 33.59375 59.375 
L 24.21875 59.375 
Q 14.453125 59.375 6.25 58.984375 
L 6.25 66.40625 
Q 14.453125 66.015625 24.21875 66.015625 
z
" id="SimHei-24067"/>
     <path d="M 43.359375 23.046875 
Q 43.359375 32.03125 42.96875 39.453125 
L 87.5 39.453125 
Q 87.109375 32.8125 87.109375 26.953125 
L 87.109375 -2.34375 
Q 87.109375 -6.640625 83.984375 -7.8125 
Q 80.859375 -8.984375 76.171875 -9.765625 
Q 75.78125 -6.25 73.4375 -2.34375 
Q 78.90625 -2.34375 79.6875 -1.171875 
Q 80.46875 0 80.46875 7.421875 
L 50.390625 7.421875 
L 50.390625 -9.765625 
L 42.96875 -9.765625 
Q 43.359375 -0.78125 43.359375 5.859375 
z
M 37.109375 50.78125 
Q 46.484375 50.390625 54.296875 50.390625 
L 62.109375 50.390625 
L 62.109375 56.640625 
L 54.6875 56.640625 
Q 48.046875 56.640625 41.015625 56.25 
L 41.015625 62.890625 
Q 48.046875 62.5 54.6875 62.5 
L 62.109375 62.5 
L 62.109375 67.96875 
L 53.90625 67.96875 
Q 47.65625 67.96875 38.671875 67.578125 
L 38.671875 74.21875 
Q 48.046875 73.828125 53.90625 73.828125 
L 62.109375 73.828125 
Q 62.109375 77.734375 61.71875 81.640625 
L 69.921875 81.640625 
Q 69.53125 77.734375 69.53125 73.828125 
L 80.078125 73.828125 
Q 86.71875 73.828125 92.578125 74.21875 
L 92.578125 67.578125 
Q 86.71875 67.96875 80.078125 67.96875 
L 69.53125 67.96875 
L 69.53125 62.5 
L 76.953125 62.5 
Q 83.203125 62.5 89.84375 62.890625 
L 89.84375 56.25 
Q 82.8125 56.640625 76.953125 56.640625 
L 69.53125 56.640625 
L 69.53125 50.390625 
L 80.859375 50.390625 
Q 90.234375 50.390625 96.09375 50.78125 
L 96.09375 44.140625 
Q 90.234375 44.53125 80.46875 44.53125 
L 54.6875 44.53125 
Q 44.53125 44.53125 37.109375 44.140625 
z
M 26.171875 81.640625 
Q 25.78125 75 25.78125 68.75 
L 25.78125 6.640625 
Q 25.78125 -1.5625 26.171875 -9.375 
L 17.96875 -9.375 
Q 18.75 -1.5625 18.75 6.640625 
L 18.75 67.578125 
Q 18.75 75.390625 17.96875 81.640625 
L 26.171875 81.640625 
z
M 80.078125 13.28125 
L 80.078125 20.703125 
L 50.390625 20.703125 
L 50.390625 13.28125 
z
M 80.078125 26.5625 
L 80.078125 33.59375 
L 50.390625 33.59375 
L 50.390625 26.5625 
z
M 16.40625 60.9375 
Q 15.625 57.421875 11.328125 35.546875 
Q 7.8125 36.71875 3.90625 37.109375 
Q 6.640625 42.96875 8.984375 62.109375 
Q 12.5 61.328125 16.40625 60.9375 
z
M 30.859375 48.828125 
Q 30.078125 53.515625 27.734375 62.109375 
Q 30.46875 62.5 34.375 63.671875 
Q 36.71875 55.46875 38.28125 51.171875 
Q 33.984375 50 30.859375 48.828125 
z
" id="SimHei-24773"/>
     <path d="M 85.15625 76.171875 
Q 84.765625 70.3125 84.765625 57.421875 
Q 84.765625 44.53125 85.15625 37.109375 
L 71.484375 37.109375 
L 71.484375 6.25 
Q 71.484375 0.78125 74.40625 0.390625 
Q 77.34375 0 81.25 0.1875 
Q 85.15625 0.390625 85.9375 2.921875 
Q 86.71875 5.46875 87.109375 12.890625 
Q 91.40625 10.546875 96.09375 9.375 
Q 93.359375 -2.734375 90.234375 -4.484375 
Q 87.109375 -6.25 80.859375 -6.4375 
Q 74.609375 -6.640625 69.328125 -5.65625 
Q 64.0625 -4.6875 64.0625 3.125 
L 64.0625 37.109375 
L 54.296875 37.109375 
Q 54.6875 2.34375 25 -9.765625 
Q 23.828125 -5.859375 19.921875 -2.34375 
Q 46.875 5.859375 46.875 37.109375 
L 36.328125 37.109375 
Q 36.71875 44.53125 36.71875 57.421875 
Q 36.71875 70.703125 36.328125 76.171875 
L 85.15625 76.171875 
z
M 76.5625 43.359375 
L 76.5625 69.921875 
L 44.53125 69.921875 
L 44.53125 43.359375 
z
M 31.640625 34.375 
Q 27.34375 26.953125 21.09375 15.625 
Q 14.84375 4.296875 12.109375 0 
Q 8.203125 2.734375 4.6875 4.6875 
Q 12.5 15.234375 25 39.0625 
Q 28.90625 35.9375 31.640625 34.375 
z
M 14.84375 77.34375 
Q 17.1875 74.609375 21.09375 69.71875 
Q 25 64.84375 28.90625 59.375 
Q 24.609375 56.640625 21.484375 53.90625 
Q 16.796875 62.890625 8.203125 71.875 
Q 12.109375 75.390625 14.84375 77.34375 
z
" id="SimHei-20917"/>
    </defs>
    <g style="fill:#262626;" transform="translate(179.16 35.2128)scale(0.12 -0.12)">
     <use xlink:href="#SimHei-79"/>
     <use x="50" xlink:href="#SimHei-22411"/>
     <use x="150" xlink:href="#SimHei-26143"/>
     <use x="250" xlink:href="#SimHei-20449"/>
     <use x="350" xlink:href="#SimHei-22122"/>
     <use x="450" xlink:href="#SimHei-27604"/>
     <use x="550" xlink:href="#SimHei-20998"/>
     <use x="650" xlink:href="#SimHei-24067"/>
     <use x="750" xlink:href="#SimHei-24773"/>
     <use x="850" xlink:href="#SimHei-20917"/>
    </g>
   </g>
  </g>
 </g>
 <defs>
  <clipPath id="p6cfa178a3c">
   <rect height="264.4488" width="357.12" x="57.6" y="41.2128"/>
  </clipPath>
 </defs>
</svg>
